<svg xmlns="http://www.w3.org/2000/svg" xmlns:xlink="http://www.w3.org/1999/xlink" contentStyleType="text/css" data-diagram-type="CLASS" height="973px" preserveAspectRatio="none" style="width:561px;height:973px;background:#FFFFFF;" version="1.1" viewBox="0 0 561 973" width="561px" zoomAndPan="magnify"><defs/><g><!--class Empresas--><g class="entity" data-entity="Empresas" data-source-line="1" data-uid="ent0002" id="entity_Empresas"><rect fill="#F1F1F1" height="129.4844" rx="2.5" ry="2.5" style="stroke:#181818;stroke-width:0.5;" width="159.0684" x="261.81" y="7"/><ellipse cx="302.9829" cy="23" fill="#ADD1B2" rx="11" ry="11" style="stroke:#181818;stroke-width:1;"/><path d="M307.0923,29 L299.3736,29 L299.3736,16.6094 L307.0923,16.6094 L307.0923,18.7656 L301.8267,18.7656 L301.8267,21.4375 L306.5923,21.4375 L306.5923,23.5938 L301.8267,23.5938 L301.8267,26.8438 L307.0923,26.8438 L307.0923,29 Z " fill="#000000"/><text fill="#000000" font-family="sans-serif" font-size="14" lengthAdjust="spacing" textLength="68.9063" x="322.7992" y="27.8467">Empresas</text><line style="stroke:#181818;stroke-width:0.5;" x1="262.81" x2="419.8784" y1="39" y2="39"/><ellipse cx="272.81" cy="52.6484" fill="none" rx="3" ry="3" style="stroke:#038048;stroke-width:1;"/><text fill="#000000" font-family="sans-serif" font-size="14" lengthAdjust="spacing" textLength="79.3994" x="281.81" y="55.9951">id: int &#171;PK&#187;</text><line style="stroke:#181818;stroke-width:1;" x1="262.81" x2="419.8784" y1="63.2969" y2="63.2969"/><text fill="#000000" font-family="sans-serif" font-size="14" lengthAdjust="spacing" textLength="103.6875" x="267.81" y="80.292">nombre: string</text><text fill="#000000" font-family="sans-serif" font-size="14" lengthAdjust="spacing" textLength="113.2236" x="267.81" y="96.5889">direccion: string</text><text fill="#000000" font-family="sans-serif" font-size="14" lengthAdjust="spacing" textLength="106.8936" x="267.81" y="112.8857">telefono: string</text><text fill="#000000" font-family="sans-serif" font-size="14" lengthAdjust="spacing" textLength="147.0684" x="267.81" y="129.1826">created_at: datetime</text></g><!--class Usuarios--><g class="entity" data-entity="Usuarios" data-source-line="10" data-uid="ent0003" id="entity_Usuarios"><rect fill="#F1F1F1" height="145.7813" rx="2.5" ry="2.5" style="stroke:#181818;stroke-width:0.5;" width="168.6865" x="7" y="356.67"/><ellipse cx="56.8442" cy="372.67" fill="#ADD1B2" rx="11" ry="11" style="stroke:#181818;stroke-width:1;"/><path d="M60.9536,378.67 L53.2349,378.67 L53.2349,366.2794 L60.9536,366.2794 L60.9536,368.4356 L55.688,368.4356 L55.688,371.1075 L60.4536,371.1075 L60.4536,373.2638 L55.688,373.2638 L55.688,376.5138 L60.9536,376.5138 L60.9536,378.67 Z " fill="#000000"/><text fill="#000000" font-family="sans-serif" font-size="14" lengthAdjust="spacing" textLength="60.498" x="77.3442" y="377.5167">Usuarios</text><line style="stroke:#181818;stroke-width:0.5;" x1="8" x2="174.6865" y1="388.67" y2="388.67"/><ellipse cx="18" cy="402.3184" fill="none" rx="3" ry="3" style="stroke:#038048;stroke-width:1;"/><text fill="#000000" font-family="sans-serif" font-size="14" lengthAdjust="spacing" textLength="79.3994" x="27" y="405.6651">id: int &#171;PK&#187;</text><line style="stroke:#181818;stroke-width:1;" x1="8" x2="174.6865" y1="412.9669" y2="412.9669"/><text fill="#000000" font-family="sans-serif" font-size="14" lengthAdjust="spacing" textLength="103.6875" x="13" y="429.962">nombre: string</text><text fill="#000000" font-family="sans-serif" font-size="14" lengthAdjust="spacing" textLength="87.9648" x="13" y="446.2589">email: string</text><text fill="#000000" font-family="sans-serif" font-size="14" lengthAdjust="spacing" textLength="156.6865" x="13" y="462.5557">password_hash: string</text><text fill="#000000" font-family="sans-serif" font-size="14" lengthAdjust="spacing" textLength="67.5664" x="13" y="478.8526">rol: string</text><text fill="#000000" font-family="sans-serif" font-size="14" lengthAdjust="spacing" textLength="147.3896" x="13" y="495.1495">empresa_id: int &#171;FK&#187;</text></g><!--class Categorias--><g class="entity" data-entity="Categorias" data-source-line="20" data-uid="ent0004" id="entity_Categorias"><rect fill="#F1F1F1" height="113.1875" rx="2.5" ry="2.5" style="stroke:#181818;stroke-width:0.5;" width="159.3896" x="111.65" y="213.48"/><ellipse cx="150.0329" cy="229.48" fill="#ADD1B2" rx="11" ry="11" style="stroke:#181818;stroke-width:1;"/><path d="M154.1422,235.48 L146.4235,235.48 L146.4235,223.0894 L154.1422,223.0894 L154.1422,225.2456 L148.8766,225.2456 L148.8766,227.9175 L153.6422,227.9175 L153.6422,230.0738 L148.8766,230.0738 L148.8766,233.3238 L154.1422,233.3238 L154.1422,235.48 Z " fill="#000000"/><text fill="#000000" font-family="sans-serif" font-size="14" lengthAdjust="spacing" textLength="75.4277" x="169.2291" y="234.3267">Categorias</text><line style="stroke:#181818;stroke-width:0.5;" x1="112.65" x2="270.0396" y1="245.48" y2="245.48"/><ellipse cx="122.65" cy="259.1284" fill="none" rx="3" ry="3" style="stroke:#038048;stroke-width:1;"/><text fill="#000000" font-family="sans-serif" font-size="14" lengthAdjust="spacing" textLength="79.3994" x="131.65" y="262.4751">id: int &#171;PK&#187;</text><line style="stroke:#181818;stroke-width:1;" x1="112.65" x2="270.0396" y1="269.7769" y2="269.7769"/><text fill="#000000" font-family="sans-serif" font-size="14" lengthAdjust="spacing" textLength="103.6875" x="117.65" y="286.772">nombre: string</text><text fill="#000000" font-family="sans-serif" font-size="14" lengthAdjust="spacing" textLength="129.4043" x="117.65" y="303.0689">descripcion: string</text><text fill="#000000" font-family="sans-serif" font-size="14" lengthAdjust="spacing" textLength="147.3896" x="117.65" y="319.3657">empresa_id: int &#171;FK&#187;</text></g><!--class Productos--><g class="entity" data-entity="Productos" data-source-line="28" data-uid="ent0005" id="entity_Productos"><rect fill="#F1F1F1" height="162.0781" rx="2.5" ry="2.5" style="stroke:#181818;stroke-width:0.5;" width="164.0654" x="199.31" y="532.45"/><ellipse cx="242.4332" cy="548.45" fill="#ADD1B2" rx="11" ry="11" style="stroke:#181818;stroke-width:1;"/><path d="M246.5426,554.45 L238.8239,554.45 L238.8239,542.0594 L246.5426,542.0594 L246.5426,544.2156 L241.277,544.2156 L241.277,546.8875 L246.0426,546.8875 L246.0426,549.0438 L241.277,549.0438 L241.277,552.2938 L246.5426,552.2938 L246.5426,554.45 Z " fill="#000000"/><text fill="#000000" font-family="sans-serif" font-size="14" lengthAdjust="spacing" textLength="69.5693" x="262.6829" y="553.2967">Productos</text><line style="stroke:#181818;stroke-width:0.5;" x1="200.31" x2="362.3754" y1="564.45" y2="564.45"/><ellipse cx="210.31" cy="578.0984" fill="none" rx="3" ry="3" style="stroke:#038048;stroke-width:1;"/><text fill="#000000" font-family="sans-serif" font-size="14" lengthAdjust="spacing" textLength="79.3994" x="219.31" y="581.4451">id: int &#171;PK&#187;</text><line style="stroke:#181818;stroke-width:1;" x1="200.31" x2="362.3754" y1="588.7469" y2="588.7469"/><text fill="#000000" font-family="sans-serif" font-size="14" lengthAdjust="spacing" textLength="103.6875" x="205.31" y="605.742">nombre: string</text><text fill="#000000" font-family="sans-serif" font-size="14" lengthAdjust="spacing" textLength="129.4043" x="205.31" y="622.0389">descripcion: string</text><text fill="#000000" font-family="sans-serif" font-size="14" lengthAdjust="spacing" textLength="107.7686" x="205.31" y="638.3357">precio: decimal</text><text fill="#000000" font-family="sans-serif" font-size="14" lengthAdjust="spacing" textLength="64.5723" x="205.31" y="654.6326">stock: int</text><text fill="#000000" font-family="sans-serif" font-size="14" lengthAdjust="spacing" textLength="152.0654" x="205.31" y="670.9295">categoria_id: int &#171;FK&#187;</text><text fill="#000000" font-family="sans-serif" font-size="14" lengthAdjust="spacing" textLength="147.3896" x="205.31" y="687.2264">empresa_id: int &#171;FK&#187;</text></g><!--class Proveedores--><g class="entity" data-entity="Proveedores" data-source-line="39" data-uid="ent0006" id="entity_Proveedores"><rect fill="#F1F1F1" height="129.4844" rx="2.5" ry="2.5" style="stroke:#181818;stroke-width:0.5;" width="159.3896" x="353.65" y="364.82"/><ellipse cx="386.6496" cy="380.82" fill="#ADD1B2" rx="11" ry="11" style="stroke:#181818;stroke-width:1;"/><path d="M390.7589,386.82 L383.0402,386.82 L383.0402,374.4294 L390.7589,374.4294 L390.7589,376.5856 L385.4933,376.5856 L385.4933,379.2575 L390.2589,379.2575 L390.2589,381.4138 L385.4933,381.4138 L385.4933,384.6638 L390.7589,384.6638 L390.7589,386.82 Z " fill="#000000"/><text fill="#000000" font-family="sans-serif" font-size="14" lengthAdjust="spacing" textLength="87.3906" x="404.6495" y="385.6667">Proveedores</text><line style="stroke:#181818;stroke-width:0.5;" x1="354.65" x2="512.0396" y1="396.82" y2="396.82"/><ellipse cx="364.65" cy="410.4684" fill="none" rx="3" ry="3" style="stroke:#038048;stroke-width:1;"/><text fill="#000000" font-family="sans-serif" font-size="14" lengthAdjust="spacing" textLength="79.3994" x="373.65" y="413.8151">id: int &#171;PK&#187;</text><line style="stroke:#181818;stroke-width:1;" x1="354.65" x2="512.0396" y1="421.1169" y2="421.1169"/><text fill="#000000" font-family="sans-serif" font-size="14" lengthAdjust="spacing" textLength="103.6875" x="359.65" y="438.112">nombre: string</text><text fill="#000000" font-family="sans-serif" font-size="14" lengthAdjust="spacing" textLength="113.2236" x="359.65" y="454.4089">direccion: string</text><text fill="#000000" font-family="sans-serif" font-size="14" lengthAdjust="spacing" textLength="106.8936" x="359.65" y="470.7057">telefono: string</text><text fill="#000000" font-family="sans-serif" font-size="14" lengthAdjust="spacing" textLength="147.3896" x="359.65" y="487.0026">empresa_id: int &#171;FK&#187;</text></g><!--class Movimientos--><g class="entity" data-entity="Movimientos" data-source-line="48" data-uid="ent0007" id="entity_Movimientos"><rect fill="#F1F1F1" height="194.6719" rx="2.5" ry="2.5" style="stroke:#181818;stroke-width:0.5;" width="170.751" x="309.97" y="771.53"/><ellipse cx="347.2762" cy="787.53" fill="#ADD1B2" rx="11" ry="11" style="stroke:#181818;stroke-width:1;"/><path d="M351.3856,793.53 L343.6668,793.53 L343.6668,781.1394 L351.3856,781.1394 L351.3856,783.2956 L346.12,783.2956 L346.12,785.9675 L350.8856,785.9675 L350.8856,788.1238 L346.12,788.1238 L346.12,791.3738 L351.3856,791.3738 L351.3856,793.53 Z " fill="#000000"/><text fill="#000000" font-family="sans-serif" font-size="14" lengthAdjust="spacing" textLength="89.1816" x="366.2331" y="792.3767">Movimientos</text><line style="stroke:#181818;stroke-width:0.5;" x1="310.97" x2="479.721" y1="803.53" y2="803.53"/><ellipse cx="320.97" cy="817.1784" fill="none" rx="3" ry="3" style="stroke:#038048;stroke-width:1;"/><text fill="#000000" font-family="sans-serif" font-size="14" lengthAdjust="spacing" textLength="79.3994" x="329.97" y="820.5251">id: int &#171;PK&#187;</text><line style="stroke:#181818;stroke-width:1;" x1="310.97" x2="479.721" y1="827.8269" y2="827.8269"/><text fill="#000000" font-family="sans-serif" font-size="14" lengthAdjust="spacing" textLength="76.1865" x="315.97" y="844.822">tipo: string</text><text fill="#000000" font-family="sans-serif" font-size="14" lengthAdjust="spacing" textLength="88.2998" x="315.97" y="861.1189">cantidad: int</text><text fill="#000000" font-family="sans-serif" font-size="14" lengthAdjust="spacing" textLength="111.0566" x="315.97" y="877.4157">fecha: datetime</text><text fill="#000000" font-family="sans-serif" font-size="14" lengthAdjust="spacing" textLength="148.7295" x="315.97" y="893.7126">producto_id: int &#171;FK&#187;</text><text fill="#000000" font-family="sans-serif" font-size="14" lengthAdjust="spacing" textLength="137.8398" x="315.97" y="910.0095">usuario_id: int &#171;FK&#187;</text><text fill="#000000" font-family="sans-serif" font-size="14" lengthAdjust="spacing" textLength="147.3896" x="315.97" y="926.3064">empresa_id: int &#171;FK&#187;</text><text fill="#000000" font-family="sans-serif" font-size="14" lengthAdjust="spacing" textLength="157.9375" x="315.97" y="942.6032">proveedor_id: int &#171;FK&#187;</text><text fill="#000000" font-family="sans-serif" font-size="14" lengthAdjust="spacing" textLength="158.751" x="315.97" y="958.9001">documento_nro: string</text></g><!--link Empresas to Usuarios--><g class="link" data-entity-1="Empresas" data-entity-2="Usuarios" data-source-line="61" data-uid="lnk8" id="link_Empresas_Usuarios"><path codeLine="61" d="M253.7984,97.6471 C196.3284,118.2271 130.42,152.39 94.34,213.48 C69.23,256.01 66.8784,294.1483 72.7784,338.3483" fill="none" id="Empresas-Usuarios" style="stroke:#181818;stroke-width:1;"/><line style="stroke:#181818;stroke-width:1;" x1="256.2156" x2="258.9127" y1="92.5327" y2="100.0644"/><line style="stroke:#181818;stroke-width:1;" x1="253.3913" x2="256.0883" y1="93.5441" y2="101.0758"/><line style="stroke:#181818;stroke-width:1;" x1="253.7984" x2="261.33" y1="97.6471" y2="94.95"/><line style="stroke:#181818;stroke-width:1;" x1="74.1015" x2="81.1072" y1="348.2603" y2="355.3961"/><line style="stroke:#181818;stroke-width:1;" x1="74.1015" x2="69.2128" y1="348.2603" y2="356.9839"/><line style="stroke:#181818;stroke-width:1;" x1="74.1015" x2="75.16" y1="348.2603" y2="356.19"/><ellipse cx="73.3077" cy="342.3131" fill="none" rx="4" ry="4" style="stroke:#181818;stroke-width:1;"/><text fill="#000000" font-family="sans-serif" font-size="13" lengthAdjust="spacing" textLength="4.1323" x="133.34" y="179.5469">&#160;</text><text fill="#000000" font-family="sans-serif" font-size="13" lengthAdjust="spacing" textLength="8.271" x="245.5974" y="93.4711">1</text><text fill="#000000" font-family="sans-serif" font-size="13" lengthAdjust="spacing" textLength="8.2393" x="65.2477" y="345.5552">n</text></g><!--link Empresas to Categorias--><g class="link" data-entity-1="Empresas" data-entity-2="Categorias" data-source-line="62" data-uid="lnk9" id="link_Empresas_Categorias"><path codeLine="62" d="M287.5819,143.116 C268.7719,167.726 263.2503,174.9687 245.0603,198.7687" fill="none" id="Empresas-Categorias" style="stroke:#181818;stroke-width:1;"/><line style="stroke:#181818;stroke-width:1;" x1="286.8329" x2="293.189" y1="137.509" y2="142.3671"/><line style="stroke:#181818;stroke-width:1;" x1="285.0112" x2="291.3672" y1="139.8925" y2="144.7506"/><line style="stroke:#181818;stroke-width:1;" x1="287.5819" x2="292.44" y1="143.116" y2="136.76"/><line style="stroke:#181818;stroke-width:1;" x1="238.9879" x2="238.8971" y1="206.7138" y2="216.7134"/><line style="stroke:#181818;stroke-width:1;" x1="238.9879" x2="229.3629" y1="206.7138" y2="209.4266"/><line style="stroke:#181818;stroke-width:1;" x1="238.9879" x2="234.13" y1="206.7138" y2="213.07"/><ellipse cx="242.6314" cy="201.9467" fill="none" rx="4" ry="4" style="stroke:#181818;stroke-width:1;"/><text fill="#000000" font-family="sans-serif" font-size="13" lengthAdjust="spacing" textLength="4.1323" x="267.34" y="179.5469">&#160;</text><text fill="#000000" font-family="sans-serif" font-size="13" lengthAdjust="spacing" textLength="8.271" x="278.6684" y="156.7658">1</text><text fill="#000000" font-family="sans-serif" font-size="13" lengthAdjust="spacing" textLength="8.2393" x="230.8715" y="202.2836">n</text></g><!--link Empresas to Productos--><g class="link" data-entity-1="Empresas" data-entity-2="Productos" data-source-line="63" data-uid="lnk10" id="link_Empresas_Productos"><path codeLine="63" d="M333.3365,144.7211 C322.3665,243.4411 304.2089,406.7702 292.2389,514.4402" fill="none" id="Empresas-Productos" style="stroke:#181818;stroke-width:1;"/><line style="stroke:#181818;stroke-width:1;" x1="329.8027" x2="337.7538" y1="140.3038" y2="141.1873"/><line style="stroke:#181818;stroke-width:1;" x1="329.4714" x2="337.4224" y1="143.2854" y2="144.1689"/><line style="stroke:#181818;stroke-width:1;" x1="333.3365" x2="334.22" y1="144.7211" y2="136.77"/><line style="stroke:#181818;stroke-width:1;" x1="291.1339" x2="296.2133" y1="524.379" y2="532.993"/><line style="stroke:#181818;stroke-width:1;" x1="291.1339" x2="284.2867" y1="524.379" y2="531.667"/><line style="stroke:#181818;stroke-width:1;" x1="291.1339" x2="290.25" y1="524.379" y2="532.33"/><ellipse cx="291.7969" cy="518.4157" fill="none" rx="4" ry="4" style="stroke:#181818;stroke-width:1;"/><text fill="#000000" font-family="sans-serif" font-size="13" lengthAdjust="spacing" textLength="4.1323" x="326.34" y="274.6369">&#160;</text><text fill="#000000" font-family="sans-serif" font-size="13" lengthAdjust="spacing" textLength="8.271" x="325.0181" y="156.7769">1</text><text fill="#000000" font-family="sans-serif" font-size="13" lengthAdjust="spacing" textLength="8.2393" x="282.6977" y="521.5066">n</text></g><!--link Empresas to Proveedores--><g class="link" data-entity-1="Empresas" data-entity-2="Proveedores" data-source-line="64" data-uid="lnk11" id="link_Empresas_Proveedores"><path codeLine="64" d="M361.4982,144.6945 C364.2082,154.5645 364.82,156.93 367.34,166.48 C385.16,233.84 400.207,293.7644 413.317,346.8844" fill="none" id="Empresas-Proveedores" style="stroke:#181818;stroke-width:1;"/><line style="stroke:#181818;stroke-width:1;" x1="356.5818" x2="364.2963" y1="141.8963" y2="139.7782"/><line style="stroke:#181818;stroke-width:1;" x1="357.3761" x2="365.0906" y1="144.7893" y2="142.6711"/><line style="stroke:#181818;stroke-width:1;" x1="361.4982" x2="359.38" y1="144.6945" y2="136.98"/><line style="stroke:#181818;stroke-width:1;" x1="415.7131" x2="423.4552" y1="356.593" y2="362.9223"/><line style="stroke:#181818;stroke-width:1;" x1="415.7131" x2="411.8048" y1="356.593" y2="365.7977"/><line style="stroke:#181818;stroke-width:1;" x1="415.7131" x2="417.63" y1="356.593" y2="364.36"/><ellipse cx="414.2755" cy="350.7678" fill="none" rx="4" ry="4" style="stroke:#181818;stroke-width:1;"/><text fill="#000000" font-family="sans-serif" font-size="13" lengthAdjust="spacing" textLength="4.1323" x="372.34" y="179.5469">&#160;</text><text fill="#000000" font-family="sans-serif" font-size="13" lengthAdjust="spacing" textLength="8.271" x="352.8414" y="156.5548">1</text><text fill="#000000" font-family="sans-serif" font-size="13" lengthAdjust="spacing" textLength="8.2393" x="407.6092" y="353.9363">n</text></g><!--link Empresas to Movimientos--><g class="link" data-entity-1="Empresas" data-entity-2="Movimientos" data-source-line="65" data-uid="lnk12" id="link_Empresas_Movimientos"><path codeLine="65" d="M399.6376,143.3164 C441.3476,197.8964 491.14,274 514.34,356.67 C554.48,499.67 502.8866,651.5056 454.5666,754.8056" fill="none" id="Empresas-Movimientos" style="stroke:#181818;stroke-width:1;"/><line style="stroke:#181818;stroke-width:1;" x1="394.0306" x2="400.387" y1="142.567" y2="137.7094"/><line style="stroke:#181818;stroke-width:1;" x1="395.8522" x2="402.2086" y1="144.9506" y2="140.0931"/><line style="stroke:#181818;stroke-width:1;" x1="399.6376" x2="394.78" y1="143.3164" y2="136.96"/><line style="stroke:#181818;stroke-width:1;" x1="450.3296" x2="452.3748" y1="763.8636" y2="773.6522"/><line style="stroke:#181818;stroke-width:1;" x1="450.3296" x2="441.5052" y1="763.8636" y2="768.5678"/><line style="stroke:#181818;stroke-width:1;" x1="450.3296" x2="446.94" y1="763.8636" y2="771.11"/><ellipse cx="452.8718" cy="758.4288" fill="none" rx="4" ry="4" style="stroke:#181818;stroke-width:1;"/><text fill="#000000" font-family="sans-serif" font-size="13" lengthAdjust="spacing" textLength="4.1323" x="529.34" y="434.1269">&#160;</text><text fill="#000000" font-family="sans-serif" font-size="13" lengthAdjust="spacing" textLength="8.271" x="391.892" y="156.5328">1</text><text fill="#000000" font-family="sans-serif" font-size="13" lengthAdjust="spacing" textLength="8.2393" x="442.444" y="760.452">n</text></g><!--link Categorias to Productos--><g class="link" data-entity-1="Categorias" data-entity-2="Productos" data-source-line="67" data-uid="lnk13" id="link_Categorias_Productos"><path codeLine="67" d="M208.1402,334.8055 C222.8602,390.6155 238.9614,451.7247 255.5914,514.8047" fill="none" id="Categorias-Productos" style="stroke:#181818;stroke-width:1;"/><line style="stroke:#181818;stroke-width:1;" x1="203.2524" x2="210.9879" y1="331.9579" y2="329.9176"/><line style="stroke:#181818;stroke-width:1;" x1="204.0175" x2="211.7529" y1="334.8587" y2="332.8184"/><line style="stroke:#181818;stroke-width:1;" x1="208.1402" x2="206.1" y1="334.8055" y2="327.07"/><line style="stroke:#181818;stroke-width:1;" x1="258.1406" x2="265.9818" y1="524.4743" y2="530.6805"/><line style="stroke:#181818;stroke-width:1;" x1="258.1406" x2="254.3782" y1="524.4743" y2="533.7395"/><line style="stroke:#181818;stroke-width:1;" x1="258.1406" x2="260.18" y1="524.4743" y2="532.21"/><ellipse cx="256.6111" cy="518.6725" fill="none" rx="4" ry="4" style="stroke:#181818;stroke-width:1;"/><text fill="#000000" font-family="sans-serif" font-size="13" lengthAdjust="spacing" textLength="4.1323" x="253.34" y="434.1269">&#160;</text><text fill="#000000" font-family="sans-serif" font-size="13" lengthAdjust="spacing" textLength="8.271" x="199.3592" y="346.602">1</text><text fill="#000000" font-family="sans-serif" font-size="13" lengthAdjust="spacing" textLength="8.2393" x="249.9496" y="521.3759">n</text></g><!--link Productos to Movimientos--><g class="link" data-entity-1="Productos" data-entity-2="Movimientos" data-source-line="68" data-uid="lnk14" id="link_Productos_Movimientos"><path codeLine="68" d="M320.8529,702.3054 C331.7429,726.5054 333.1326,729.5958 344.4426,754.7258" fill="none" id="Productos-Movimientos" style="stroke:#181818;stroke-width:1;"/><line style="stroke:#181818;stroke-width:1;" x1="315.5638" x2="322.8591" y1="700.2991" y2="697.0162"/><line style="stroke:#181818;stroke-width:1;" x1="316.7949" x2="324.0902" y1="703.0349" y2="699.752"/><line style="stroke:#181818;stroke-width:1;" x1="320.8529" x2="317.57" y1="702.3054" y2="695.01"/><line style="stroke:#181818;stroke-width:1;" x1="348.5467" x2="357.3014" y1="763.8448" y2="768.6775"/><line style="stroke:#181818;stroke-width:1;" x1="348.5467" x2="346.3586" y1="763.8448" y2="773.6025"/><line style="stroke:#181818;stroke-width:1;" x1="348.5467" x2="351.83" y1="763.8448" y2="771.14"/><ellipse cx="346.0843" cy="758.3734" fill="none" rx="4" ry="4" style="stroke:#181818;stroke-width:1;"/><text fill="#000000" font-family="sans-serif" font-size="13" lengthAdjust="spacing" textLength="4.1323" x="339.34" y="737.5969">&#160;</text><text fill="#000000" font-family="sans-serif" font-size="13" lengthAdjust="spacing" textLength="8.271" x="312.3512" y="714.7328">1</text><text fill="#000000" font-family="sans-serif" font-size="13" lengthAdjust="spacing" textLength="8.2393" x="340.3494" y="760.4842">n</text></g><!--link Usuarios to Movimientos--><g class="link" data-entity-1="Usuarios" data-entity-2="Movimientos" data-source-line="69" data-uid="lnk15" id="link_Usuarios_Movimientos"><path codeLine="69" d="M103.973,510.7638 C115.233,566.9138 135.36,636.81 175.34,694.53 C210.16,744.79 248.8887,777.5071 294.5087,807.9571" fill="none" id="Usuarios-Movimientos" style="stroke:#181818;stroke-width:1;"/><line style="stroke:#181818;stroke-width:1;" x1="99.2646" x2="107.1084" y1="507.6284" y2="506.0554"/><line style="stroke:#181818;stroke-width:1;" x1="99.8544" x2="107.6983" y1="510.5698" y2="508.9969"/><line style="stroke:#181818;stroke-width:1;" x1="103.973" x2="102.4" y1="510.7638" y2="502.92"/><line style="stroke:#181818;stroke-width:1;" x1="302.8261" x2="312.811" y1="813.5087" y2="812.9596"/><line style="stroke:#181818;stroke-width:1;" x1="302.8261" x2="306.149" y1="813.5087" y2="822.9404"/><line style="stroke:#181818;stroke-width:1;" x1="302.8261" x2="309.48" y1="813.5087" y2="817.95"/><ellipse cx="297.8356" cy="810.1777" fill="none" rx="4" ry="4" style="stroke:#181818;stroke-width:1;"/><text fill="#000000" font-family="sans-serif" font-size="13" lengthAdjust="spacing" textLength="4.1323" x="176.34" y="618.0569">&#160;</text><text fill="#000000" font-family="sans-serif" font-size="13" lengthAdjust="spacing" textLength="8.271" x="95.063" y="522.4472">1</text><text fill="#000000" font-family="sans-serif" font-size="13" lengthAdjust="spacing" textLength="8.2393" x="293.7675" y="810.0025">n</text></g><!--link Proveedores to Movimientos--><g class="link" data-entity-1="Proveedores" data-entity-2="Movimientos" data-source-line="70" data-uid="lnk16" id="link_Proveedores_Movimientos"><path codeLine="70" d="M427.0873,502.59 C420.7573,575.42 412.6095,669.1977 405.2895,753.3677" fill="none" id="Proveedores-Movimientos" style="stroke:#181818;stroke-width:1;"/><line style="stroke:#181818;stroke-width:1;" x1="423.4487" x2="431.4186" y1="498.2586" y2="498.9513"/><line style="stroke:#181818;stroke-width:1;" x1="423.1889" x2="431.1589" y1="501.2474" y2="501.9401"/><line style="stroke:#181818;stroke-width:1;" x1="427.0873" x2="427.78" y1="502.59" y2="494.62"/><line style="stroke:#181818;stroke-width:1;" x1="404.4231" x2="409.7074" y1="763.3301" y2="771.8198"/><line style="stroke:#181818;stroke-width:1;" x1="404.4231" x2="397.7526" y1="763.3301" y2="770.7802"/><line style="stroke:#181818;stroke-width:1;" x1="404.4231" x2="403.73" y1="763.3301" y2="771.3"/><ellipse cx="404.943" cy="757.3526" fill="none" rx="4" ry="4" style="stroke:#181818;stroke-width:1;"/><text fill="#000000" font-family="sans-serif" font-size="13" lengthAdjust="spacing" textLength="4.1323" x="426.34" y="618.0569">&#160;</text><text fill="#000000" font-family="sans-serif" font-size="13" lengthAdjust="spacing" textLength="8.271" x="418.8076" y="514.1763">1</text><text fill="#000000" font-family="sans-serif" font-size="13" lengthAdjust="spacing" textLength="8.2393" x="396.0748" y="760.3279">n</text></g><!--SRC=[jLCzRyCW4DtzAv3NoaDNAyfIjKjLAKjdYy8bFjLm5k1KLTB_NWAjiVFXf5730duytxrxTu1sw3xPeseDM6xP9cD-tQ4i6Mh7PhF5ytmUiA88coRrPg1arXdKgm19D204aXwX3XfOagOHA0nm1xBYhcJIdnmgoBwo3AACLzjnWtIT350Scn7ISci_oCYgvhOUtHXgzluDzLSfuTCkOLBsuCMkoE2r5e4L1ji3ayxcNHYIdN3qlsbzKe_v5lXDyIPWrf5u3x5ZftuBtjTsgUmrW2JFklL8dTNoGcjKw3ykCT5XkpUnt4UHN2PdbY1gFXZVQ6Xiqp6pkZZKV_3n9s9qyDYb9D6fNKMLDackBxb_nzjjKT0cFQYIvVSvotL-G1bCzcbI6iD9Jj_pqwnXDn8h6wYOI9cmoMXzrPEieTufuZS0]--></g></svg>